<svg height="470pt" viewBox="-7 0 470 470.07" width="470pt" xmlns="http://www.w3.org/2000/svg"><path d="M358.066 416.82c11.118-.004 20.137 9.004 20.141 20.125.004 11.118-9.008 20.133-20.129 20.137-11.117 0-20.133-9.012-20.133-20.133 0-11.113 9.004-20.125 20.121-20.129zm0 0" fill="#00efd1"/><path d="M449.324 216.219v121.25c0 20.215-16.386 36.597-36.597 36.59h-74.883c-13.418 0-29.09-11.149-35.52-21.989l18.442-15.03h54.52V216.218l9.3 2.66a37.643 37.643 0 0027.45-2.688 37.49 37.49 0 0127.19-2.77zm0 0" fill="#00acea"/><path d="M334.895 121.992c.972-.082 1.96-.12 2.949-.12h74.883c.988 0 1.98.038 2.949.12 19.008 1.528 33.652 17.399 33.648 36.469v57.758l-10.097-2.797a37.49 37.49 0 00-27.192 2.77 37.643 37.643 0 01-27.45 2.687l-9.3-2.66V174.37h-74.039v-15.91c-.004-19.07 14.64-34.941 33.649-36.469zm0 0" fill="#fedb41"/><path d="M415.676 95.621v26.371a35.105 35.105 0 00-2.95-.12h-74.882a35.2 35.2 0 00-2.95.12v-26.37c0-7.442 6.032-13.474 13.473-13.474h53.84c7.438 0 13.469 6.032 13.469 13.473zM405.574 6.922v45.226h-60.578V6.922zm0 0" fill="#00efd1"/><path d="M358.457 52.148h33.66v30h-33.66zm0 0" fill="#00acea"/><path d="M375.285 216.219v120.82h-54.52l16.532-13.48c5.652-4.61 6.984-12.711 3.098-18.887s-11.766-8.485-18.368-5.383l-.191-.41 19.59-15.969c6.164-5.031 7.097-14.097 2.094-20.281-5.008-6.184-14.07-7.156-20.274-2.18l11.121-9.07a14.451 14.451 0 00-3.96-24.762 14.456 14.456 0 00-14.302 2.363l-16.8 13.7c6.187-5.04 7.113-14.145 2.07-20.328a1.208 1.208 0 00-.129-.153v-47.828h74.04zm0 0" fill="#00efd1"/><path d="M320.766 337.04l-18.442 15.03-9.258 7.551-22.96 18.719-23.63 19.27a48.842 48.842 0 01-38.601 10.41l-.34-.098-30.789 25.098c-12.371 10.085-30.574 8.238-40.66-4.13l-32.871-40.308c-10.082-12.375-8.227-30.574 4.14-40.66l5.852-4.762 12.848-10.48 5.492-5.11a43.334 43.334 0 0114.7-43.98l69.788-56.899 9.442-7.699a6.126 6.126 0 018.628.88c10.254 12.57 8.653 31.015-3.62 41.628l50.562-41.219c6.125-4.996 15.125-4.14 20.2 1.918.046.047.089.098.128.153 5.043 6.183 4.117 15.289-2.07 20.328l16.8-13.7c6.188-4.992 15.25-4.046 20.274 2.118 5.023 6.164 4.125 15.226-2.012 20.28l-11.12 9.071c6.202-4.976 15.265-4.004 20.273 2.18 5.003 6.184 4.07 15.25-2.094 20.281l-19.59 15.969.191.41c6.602-3.101 14.48-.793 18.368 5.383s2.554 14.277-3.098 18.887zm0 0" fill="#fedb41"/><path d="M275.066 422.82c11.118-.004 20.137 9.004 20.141 20.125.004 11.118-9.008 20.133-20.129 20.137-11.117 0-20.133-9.012-20.133-20.133 0-11.113 9.004-20.125 20.121-20.129zm0 0" fill="#00efd1"/><path d="M282.684 110.672c5.164 10.625 2.273 23.41-6.957 30.785-9.227 7.379-22.336 7.379-31.563 0-9.23-7.375-12.117-20.16-6.957-30.785l22.738-36.043zM67.027 215.582a43.334 43.334 0 0139.407-25.281h102.23a6.13 6.13 0 016.133 6.129c0 16.562-13.422 29.988-29.98 29.992h31l.218.27-69.789 56.898a43.334 43.334 0 00-14.7 43.98l-5.491 5.11-12.848 10.48-.133-.16a50.434 50.434 0 01-37.719-17.61h-39.71c-15.961 0-28.899-12.937-28.899-28.898V244.48c0-15.96 12.938-28.898 28.899-28.898zm0 0" fill="#00acea"/><path d="M171.066 116.82c11.118-.004 20.137 9.004 20.141 20.125.004 11.118-9.008 20.133-20.129 20.137-11.117 0-20.133-9.012-20.133-20.133 0-11.113 9.004-20.125 20.121-20.129zm-74-40c11.118-.004 20.137 9.004 20.141 20.125.004 11.118-9.008 20.133-20.129 20.137-11.117 0-20.133-9.012-20.133-20.133 0-11.113 9.004-20.125 20.121-20.129zm0 0" fill="#00efd1"/><g fill="#083863"><path d="M35.645 332h36.644a53.096 53.096 0 0025.387 15.586c-10.63 13.25-10.578 32.121.113 45.32l32.871 40.36a35.694 35.694 0 0024.192 13.05 35.566 35.566 0 0026.316-7.879l28.39-23.136a56.061 56.061 0 0041.34-12.266l50.157-40.922C309.816 372.22 324.168 381 337.844 381h74.883a43.344 43.344 0 0043.308-43.531V158.46c0-20.371-14-37.895-33-42.438V95.625c-.168-11.402-9.43-20.57-20.828-20.625h-3.172V59h6.54c3.866 0 7.46-2.984 7.46-6.852V6.922c0-3.867-3.594-6.922-7.46-6.922h-60.579a6.904 6.904 0 00-6.96 6.922v16.672c-6-4.074-12.286-6.73-19.645-6.852L266.418 16h-.074a7.166 7.166 0 00-7 7.117 7.085 7.085 0 006.926 7.168l51.906.602c11 .207 19.761 9.273 19.59 20.277a6.55 6.55 0 00.363 2.262A6.944 6.944 0 00344.996 59h6.04v16h-2.669c-11.305.094-20.398 9.316-20.332 20.621v20.406c-19 4.547-34 22.067-34 42.434v51.965a18.126 18.126 0 00-3.976-.399 21.36 21.36 0 00-13.489 4.825l-28.75 23.46a37.005 37.005 0 00-8.3-22.863c-4.594-5.55-12.754-6.476-18.473-2.101L213.87 219h-.117a35.562 35.562 0 008.043-22.781c.008-7.27-5.86-13.18-13.133-13.219h-102.23a50.147 50.147 0 00-43.657 26H35.645a35.338 35.338 0 00-35.61 35.48v52.012A35.362 35.362 0 0035.645 332zm377.082 35h-74.883c-8.926 0-19.532-6.559-25.934-13.758L323.254 344h52.031a6.764 6.764 0 004.848-2.05 6.77 6.77 0 001.902-4.91V225.5l.5.105a44.87 44.87 0 0032.672-3.19 30.102 30.102 0 0121.992-2.25l4.836 1.378v115.926A29.33 29.33 0 01412.727 367zm-67.95-68.2a21.497 21.497 0 00-5.734-4.917l6.809-5.551a21.48 21.48 0 00-3.332-35.496c6.378-8.7 5.296-20.785-2.528-28.215s-19.949-7.887-28.312-1.066l-1.328 1a19.183 19.183 0 00-2.317-4.621V181h60v149h-27.61l1.29-1.031a21.427 21.427 0 007.793-14.45 21.409 21.409 0 00-4.73-15.714zM352.035 14h47v31h-47zm13 45h20v16h-20zm-16.668 30h53.84a6.924 6.924 0 016.828 6.621V115h-67V95.621A6.49 6.49 0 01348.367 89zm-13 40.031c.774-.062 1.676-.031 2.477-.031h74.879c.8 0 1.457-.031 2.25.035 15.297 1.285 27.062 14.074 27.062 29.426v48.555l-1.078-.34a44.216 44.216 0 00-32.187 3.285 31.194 31.194 0 01-22.422 2.187l-4.313-1.207v-36.57c0-3.867-2.883-7.371-6.75-7.371h-67.25v-8.54c.117-15.405 11.977-28.17 27.332-29.429zM233.855 238.79a23.015 23.015 0 01-7.953 17.418c-.148.129-.3.25-.449.379l-26.68 21.75a7 7 0 008.844 10.852l22.418-18.278 4.313-3.515.55-.461.008-.008 50.555-41.215a7.442 7.442 0 0110.418.984c.043.051.082.102.125.145a7.458 7.458 0 01-1.125 10.414l-66.617 54.32a6.996 6.996 0 00-2.524 6.559 6.997 6.997 0 0011.371 4.293l66.614-54.317h.004l16.796-13.695a7.445 7.445 0 0110.48 1.063 7.46 7.46 0 01-1.062 10.484l-11.039 9c-.054.043-.109.082-.16.125l-16.789 13.691-55.43 45.2a6.998 6.998 0 00-.957 9.812 6.998 6.998 0 009.805 1.035l55.43-45.199 16.672-13.594a2.93 2.93 0 00.172-.136 7.35 7.35 0 014.652-1.633 7.448 7.448 0 017.015 4.953 7.442 7.442 0 01-2.308 8.27l-19.59 15.972a6.925 6.925 0 00-.96.953c-.638.41-1.25.86-1.84 1.336l-38.641 31.488a7.004 7.004 0 00-.953 9.809 7.003 7.003 0 009.796 1.047l38.653-31.5a7.45 7.45 0 0111.008 1.82 7.442 7.442 0 01-1.606 9.727l-90.816 74.05a42.058 42.058 0 01-32.668 8.985 7.003 7.003 0 00-6.274 1.324l-30.793 25.102c-9.37 7.64-23.164 6.238-30.808-3.133L108.64 384.16c-7.621-9.379-6.223-23.156 3.132-30.808l18.707-15.25c.118-.098.23-.2.344-.301l5.488-5.11a7.003 7.003 0 002.032-6.8 36.51 36.51 0 0112.324-36.88l78.547-64.042a22.644 22.644 0 014.64 13.82zm-219.82 5.691A21.326 21.326 0 0135.645 223H57.32a44.708 44.708 0 00-1.226 10.852 60.806 60.806 0 0017.883 43.023l2.949 2.922a7.01 7.01 0 009.879-.043 7.006 7.006 0 00.02-9.879l-2.95-2.953a47.033 47.033 0 01-13.781-33.281c-.074-20.153 16.191-36.551 36.34-36.641H207.78c-.46 13-10.586 22-22.965 22h-41.539a7.18 7.18 0 00-7 7.21c-.004 10.911-8.812 19.77-19.722 19.837a7.044 7.044 0 00-7 7.05 6.841 6.841 0 007 6.816c16.058.189 29.949-11.143 32.992-26.913h47.152l-18.265 15h-13.477a7.14 7.14 0 00-2.906 13.602l-20.227 16.527a50.644 50.644 0 00-17.91 46.969l-2.46 2.297-10.481 8.546a43.428 43.428 0 01-30.336-15.152 42.551 42.551 0 01-9.442-18.176 6.984 6.984 0 00-3.117-4.36 6.996 6.996 0 00-5.285-.87 6.802 6.802 0 00-5.234 8.21A52.99 52.99 0 0062.21 318H35.645a21.35 21.35 0 01-21.61-21.508zm0 0"/><path d="M230.91 107.61c-6.586 13.57-2.894 29.89 8.887 39.308 11.781 9.414 28.516 9.414 40.3 0 11.782-9.418 15.473-25.738 8.887-39.309a7.194 7.194 0 00-.379-.68L265.867 70.9a7.007 7.007 0 00-5.922-3.262 6.995 6.995 0 00-5.918 3.261l-22.742 36.043a6.97 6.97 0 00-.375.668zm12.438 6.44l16.601-26.296 16.594 26.297a18.276 18.276 0 01-6.137 22.656 18.28 18.28 0 01-23.383-2.07 18.279 18.279 0 01-3.675-20.586zm-99.403 22.9c.004 14.98 12.149 27.124 27.13 27.12 14.98-.004 27.124-12.148 27.12-27.129-.004-14.98-12.148-27.125-27.129-27.12-14.976.019-27.105 12.156-27.12 27.128zm40.25 0c-.004 7.25-5.879 13.12-13.125 13.12-7.25 0-13.125-5.875-13.125-13.125 0-7.246 5.871-13.12 13.121-13.125 7.246.008 13.121 5.883 13.13 13.13zm-114.25-40c.004 14.98 12.149 27.124 27.13 27.12 14.98-.004 27.124-12.148 27.12-27.129-.004-14.98-12.148-27.125-27.129-27.12-14.976.019-27.105 12.156-27.12 27.128zm40.25 0c-.004 7.25-5.879 13.12-13.125 13.12-7.25 0-13.125-5.875-13.125-13.125 0-7.246 5.871-13.12 13.121-13.125 7.246.008 13.121 5.883 13.13 13.13zm137.75 346c.004 14.98 12.149 27.124 27.13 27.12 14.98-.004 27.124-12.148 27.12-27.129-.004-14.98-12.148-27.125-27.129-27.12-14.976.019-27.105 12.156-27.12 27.128zm40.25 0c-.004 7.25-5.879 13.12-13.125 13.12-7.25 0-13.125-5.875-13.125-13.125 0-7.246 5.871-13.12 13.121-13.125 7.247.008 13.122 5.883 13.13 13.13zm42.75-6c.004 14.98 12.149 27.124 27.13 27.12 14.98-.004 27.124-12.148 27.12-27.129-.004-14.98-12.148-27.125-27.129-27.12-14.976.019-27.105 12.156-27.12 27.128zm40.25 0c-.004 7.25-5.879 13.12-13.125 13.12-7.25 0-13.125-5.875-13.125-13.125 0-7.246 5.871-13.12 13.121-13.125 7.247.008 13.122 5.883 13.13 13.13zm0 0"/></g></svg>